<svg width="512" height="512" viewBox="0 0 512 512" fill="none" xmlns="http://www.w3.org/2000/svg">
<path d="M470.631 385.986L451.587 376.027L451.541 375.935C451.264 375.797 450.986 375.704 450.755 375.566L450.478 375.428C416.597 359.291 382.207 347.164 347.494 338.911V137.886C347.494 130.878 341.994 125.299 335.107 125.299H290.872H179.338H135.103C128.308 125.299 122.715 130.878 122.715 137.886V339.88C88.1872 348.409 53.844 360.674 20.0555 376.811L6.60477 384.926L4.57104 423.84C16.6813 410.746 29.3462 403.737 29.3462 403.737C57.8192 389.721 92.3472 376.027 122.761 368.558V482.764H179.291V235.402C179.291 204.28 204.899 178.506 235.405 178.506C265.958 178.506 290.78 203.68 290.78 234.756C290.78 234.987 290.687 235.217 290.687 235.402H290.78V328.998C264.757 326.001 238.641 325.033 212.525 326.416L191.032 357.538C224.497 354.726 257.084 354.956 289.254 358.599C289.578 358.599 289.763 358.599 290.086 358.691C290.317 358.691 290.549 358.691 290.826 358.783C296.419 359.429 316.849 362.011 335.523 366.621L290.826 381.791V482.672H347.31V368.973C377.77 376.627 407.861 387.831 438.09 402.492L452.465 408.486C452.465 408.486 468.782 416.555 472.618 424.808L470.631 385.986Z" fill="url(#paint0_linear_5647_50492)"/>
<path fill-rule="evenodd" clip-rule="evenodd" d="M82.4458 45.4286C52.6812 45.4286 27.4286 70.9595 27.4286 103.894V407.534C27.4286 440.469 52.6812 466 82.4458 466H392.983C422.693 466 447.962 440.474 448 407.518V301.992L475.429 302.105V407.55C475.375 454.331 439.108 493.429 392.983 493.429H82.4458C36.2829 493.429 0 454.337 0 407.534V103.894C0 57.0919 36.2829 18 82.4458 18H392.983C439.146 18 475.429 57.0919 475.429 103.894V274H448V246.244C457.038 241.932 463.281 232.726 463.281 222.065C463.281 211.404 457.038 202.198 448 197.885V103.894C448 70.9595 422.747 45.4286 392.983 45.4286H82.4458Z" fill="url(#paint1_linear_5647_50492)"/>
<path fill-rule="evenodd" clip-rule="evenodd" d="M437.167 275.272H503.68C508.303 275.272 512 271.584 512 267.065V177.157C512 172.546 508.256 168.858 503.68 168.858H437.167C407.723 168.858 383.826 192.649 383.826 222.065C383.826 251.435 407.677 275.272 437.167 275.272ZM463.281 222.065C463.281 236.86 451.258 248.853 436.426 248.853C421.595 248.853 409.571 236.86 409.571 222.065C409.571 207.27 421.595 195.277 436.426 195.277C451.258 195.277 463.281 207.27 463.281 222.065Z" fill="url(#paint2_linear_5647_50492)"/>
<defs>
<linearGradient id="paint0_linear_5647_50492" x1="4.50356" y1="304.055" x2="472.679" y2="304.055" gradientUnits="userSpaceOnUse">
<stop stop-color="#8D29C1"/>
<stop offset="0.0858" stop-color="#8D29C1"/>
<stop offset="0.2383" stop-color="#942BBB"/>
<stop offset="0.4667" stop-color="#A92FAC"/>
<stop offset="0.7413" stop-color="#CA3793"/>
<stop offset="1" stop-color="#F03F77"/>
</linearGradient>
<linearGradient id="paint1_linear_5647_50492" x1="-0.307395" y1="256.058" x2="475.711" y2="255.443" gradientUnits="userSpaceOnUse">
<stop stop-color="#8D29C1"/>
<stop offset="0.0858" stop-color="#8D29C1"/>
<stop offset="0.2383" stop-color="#942BBB"/>
<stop offset="0.4667" stop-color="#A92FAC"/>
<stop offset="0.7413" stop-color="#CA3793"/>
<stop offset="1" stop-color="#F03F77"/>
</linearGradient>
<linearGradient id="paint2_linear_5647_50492" x1="452.306" y1="87.8849" x2="447.724" y2="251.713" gradientUnits="userSpaceOnUse">
<stop stop-color="#8D29C1"/>
<stop offset="0.0858" stop-color="#8D29C1"/>
<stop offset="0.2383" stop-color="#942BBB"/>
<stop offset="0.4667" stop-color="#A92FAC"/>
<stop offset="0.7413" stop-color="#CA3793"/>
<stop offset="1" stop-color="#F03F77"/>
</linearGradient>
</defs>
</svg>
